<svg width="34" height="11" viewBox="0 0 34 11" fill="none" xmlns="http://www.w3.org/2000/svg">
<path d="M0.774 7.84L0.756 8.272C0.756 8.824 0.888 9.25 1.152 9.55C1.428 9.85 1.788 10 2.232 10C2.976 10 3.75 9.568 4.554 8.704C5.058 8.164 5.94 6.592 7.2 3.988C7.824 2.692 8.184 1.948 8.28 1.756C8.58 1.18 9.114 0.735999 9.882 0.424C9.378 0.424 8.676 0.454 7.776 0.514C5.4 0.67 4.212 1.204 4.212 2.116C4.212 2.536 4.392 2.83 4.752 2.998C4.824 3.034 4.812 3.076 4.716 3.124C4.632 3.172 4.536 3.172 4.428 3.124C4.332 3.064 4.176 2.908 3.96 2.656C3.636 2.26 3.474 1.924 3.474 1.648C3.474 1.36 3.576 1.102 3.78 0.873999C3.984 0.646 4.38 0.478 4.968 0.37C5.832 0.213999 6.798 0.135999 7.866 0.135999C10.914 0.135999 12.648 0.148 13.068 0.172C13.764 0.207999 14.112 0.399999 14.112 0.748C14.112 0.952 14.058 1.162 13.95 1.378C13.842 1.582 13.752 1.75 13.68 1.882C13.608 2.002 13.566 2.074 13.554 2.098C13.494 2.23 13.398 2.302 13.266 2.314C13.194 2.326 13.17 2.29 13.194 2.206C13.278 1.918 13.32 1.66 13.32 1.432C13.32 0.952 13.128 0.651999 12.744 0.532C12.516 0.435999 12.264 0.387999 11.988 0.387999C10.968 0.387999 10.254 0.543999 9.846 0.856C9.63 1.024 9.432 1.246 9.252 1.522C9.084 1.798 8.952 2.014 8.856 2.17C8.772 2.314 8.664 2.518 8.532 2.782C8.412 3.034 8.322 3.226 8.262 3.358C8.202 3.49 8.106 3.694 7.974 3.97C7.842 4.246 7.764 4.414 7.74 4.474C7.692 4.606 7.74 4.672 7.884 4.672L10.422 4.69C10.806 4.69 11.058 4.726 11.178 4.798C11.31 4.87 11.328 4.996 11.232 5.176C11.148 5.356 11.04 5.548 10.908 5.752C10.788 5.944 10.71 6.088 10.674 6.184C10.65 6.268 10.572 6.316 10.44 6.328C10.416 6.316 10.404 6.304 10.404 6.292C10.56 5.932 10.638 5.656 10.638 5.464C10.638 5.272 10.554 5.176 10.386 5.176H7.578C7.47 5.176 7.386 5.224 7.326 5.32C7.278 5.416 7.14 5.698 6.912 6.166C6.684 6.622 6.516 6.946 6.408 7.138C6.312 7.33 6.168 7.606 5.976 7.966C4.968 9.778 3.822 10.684 2.538 10.684C2.142 10.684 1.776 10.576 1.44 10.36C0.864 9.964 0.576 9.304 0.576 8.38V8.092C0.576 7.9 0.63 7.804 0.738 7.804C0.762 7.804 0.774 7.816 0.774 7.84ZM16.7226 7.336C16.7466 7.36 16.7586 7.408 16.7586 7.48C16.7586 7.552 16.6746 7.702 16.5066 7.93C15.4386 9.346 14.4486 10.054 13.5366 10.054C13.2486 10.054 13.1046 9.94 13.1046 9.712C13.1046 9.292 13.3386 8.716 13.8066 7.984C13.3866 8.428 12.9066 8.884 12.3666 9.352C11.8266 9.808 11.3226 10.036 10.8546 10.036C10.6386 10.036 10.5306 9.904 10.5306 9.64C10.5306 9.58 10.5366 9.538 10.5486 9.514C10.6326 8.83 10.9086 8.11 11.3766 7.354C12.3126 5.842 13.2846 5.086 14.2926 5.086H16.3626C16.4226 5.086 16.4526 5.11 16.4526 5.158C16.4526 5.254 16.3986 5.302 16.2906 5.302C16.1226 5.302 15.9126 5.5 15.6606 5.896C15.4086 6.28 15.0726 6.88 14.6526 7.696C14.2446 8.5 14.0406 9.01 14.0406 9.226C14.0406 9.43 14.1246 9.532 14.2926 9.532C14.5686 9.532 14.9526 9.292 15.4446 8.812C15.7086 8.536 15.9066 8.32 16.0386 8.164C16.1706 8.008 16.2546 7.906 16.2906 7.858C16.3386 7.81 16.4826 7.636 16.7226 7.336ZM14.7966 5.662C14.7966 5.434 14.6406 5.32 14.3286 5.32C14.0286 5.32 13.6926 5.494 13.3206 5.842C12.9486 6.19 12.5406 6.754 12.0966 7.534C11.6646 8.302 11.4486 8.86 11.4486 9.208C11.4486 9.352 11.4966 9.424 11.5926 9.424C11.9406 9.424 12.5586 8.896 13.4466 7.84C14.3466 6.772 14.7966 6.046 14.7966 5.662ZM18.8096 9.766C18.2096 10.138 17.7596 10.204 17.4596 9.964C17.3036 9.832 17.2316 9.592 17.2436 9.244C17.2436 8.212 17.4236 7.216 17.7836 6.256C17.6156 6.496 17.3576 6.844 17.0096 7.3C16.6616 7.744 16.4816 7.972 16.4696 7.984C16.3856 8.104 16.3436 8.092 16.3436 7.948C16.3436 7.852 16.3736 7.768 16.4336 7.696C17.1056 6.796 17.6636 5.998 18.1076 5.302C18.5396 5.242 18.8336 5.14 18.9896 4.996C19.0376 4.948 19.0736 4.924 19.0976 4.924C19.1336 4.924 19.1516 4.948 19.1516 4.996C19.1516 5.044 19.1336 5.092 19.0976 5.14C18.8816 5.464 18.6356 6.076 18.3596 6.976C18.0836 7.876 17.9456 8.542 17.9456 8.974C17.9456 9.394 18.0476 9.604 18.2516 9.604C18.7316 9.604 19.3556 8.992 20.1236 7.768C20.6756 6.868 20.9636 6.16 20.9876 5.644C20.9876 5.368 20.9396 5.2 20.8436 5.14C20.7476 5.104 20.7116 5.068 20.7356 5.032C20.7716 4.996 20.8076 4.978 20.8436 4.978C20.8796 4.978 20.9336 4.99 21.0056 5.014C21.0776 5.038 21.1436 5.062 21.2036 5.086C21.4076 5.182 21.5336 5.284 21.5816 5.392C21.6296 5.488 21.6536 5.608 21.6536 5.752C21.6536 6.184 21.2696 6.904 20.5016 7.912C19.7336 8.92 19.1696 9.538 18.8096 9.766ZM24.4066 8.938C24.1786 9.19 23.8606 9.442 23.4526 9.694C23.0566 9.934 22.6906 10.054 22.3546 10.054C22.0306 10.054 21.8686 9.94 21.8686 9.712C21.8686 9.496 21.9286 9.256 22.0486 8.992C22.1326 8.8 22.6126 7.78 23.4886 5.932C22.8526 6.616 22.2766 7.3 21.7606 7.984C21.6766 8.104 21.6346 8.092 21.6346 7.948C21.6346 7.852 21.6646 7.768 21.7246 7.696C22.5766 6.64 23.2306 5.782 23.6866 5.122C24.2866 5.038 24.6466 4.942 24.7666 4.834C24.8866 4.726 24.9526 4.72 24.9646 4.816C24.9646 4.864 24.9346 4.924 24.8746 4.996C24.8266 5.056 24.3406 5.956 23.4166 7.696C23.0086 8.464 22.8046 8.992 22.8046 9.28C22.8046 9.448 22.8886 9.532 23.0566 9.532C23.4286 9.532 24.1006 8.956 25.0726 7.804L25.4686 7.354C25.6126 7.498 25.2586 8.026 24.4066 8.938ZM25.4146 3.124C25.1266 3.124 24.9826 2.968 24.9826 2.656C24.9826 2.512 25.0606 2.386 25.2166 2.278C25.3846 2.17 25.5286 2.116 25.6486 2.116C25.7806 2.116 25.8826 2.17 25.9546 2.278C26.0266 2.374 26.0626 2.452 26.0626 2.512C26.0626 2.728 25.9846 2.884 25.8286 2.98C25.6726 3.076 25.5346 3.124 25.4146 3.124ZM26.6095 5.068L27.1675 5.086C27.6355 4.45 28.1035 3.616 28.5715 2.584C28.6795 2.572 28.8475 2.506 29.0755 2.386C29.3035 2.254 29.4655 2.14 29.5615 2.044C29.6695 1.936 29.7355 1.882 29.7595 1.882C29.7955 1.882 29.8135 1.9 29.8135 1.936C29.8135 1.96 29.7655 2.026 29.6695 2.134C29.5735 2.242 29.3335 2.602 28.9495 3.214C28.5775 3.814 28.2355 4.438 27.9235 5.086H29.3815C29.5015 5.086 29.5675 5.104 29.5795 5.14C29.5915 5.176 29.5495 5.212 29.4535 5.248C29.3695 5.272 29.2855 5.296 29.2015 5.32C29.1295 5.344 28.9615 5.368 28.6975 5.392C28.1095 5.428 27.7435 5.548 27.5995 5.752C27.4675 5.944 27.2335 6.448 26.8975 7.264C26.2735 8.776 26.1775 9.532 26.6095 9.532C26.9815 9.532 27.6655 8.956 28.6615 7.804L29.0035 7.372C29.0275 7.408 29.0395 7.468 29.0395 7.552C29.0395 7.624 28.9735 7.75 28.8415 7.93C27.7375 9.346 26.7415 10.054 25.8535 10.054C25.5655 10.054 25.4215 9.94 25.4215 9.712C25.4215 9.424 25.6555 8.812 26.1235 7.876L27.0955 5.698C25.8715 7.186 25.2475 7.948 25.2235 7.984C25.1395 8.104 25.0975 8.092 25.0975 7.948C25.0975 7.852 25.1275 7.768 25.1875 7.696C26.0035 6.676 26.5675 5.962 26.8795 5.554C26.7715 5.554 26.4475 5.584 25.9075 5.644C25.7875 5.644 25.8295 5.548 26.0335 5.356C26.2495 5.164 26.3995 5.068 26.4835 5.068H26.6095ZM33.1118 5.698C33.1118 6.346 32.7878 7.138 32.1398 8.074C31.8878 8.41 31.6598 8.674 31.4558 8.866C32.2478 8.866 32.9798 8.422 33.6518 7.534C33.7118 7.474 33.7418 7.498 33.7418 7.606C33.7418 7.702 33.7178 7.78 33.6698 7.84C33.0578 8.692 32.3618 9.118 31.5818 9.118C31.4738 9.118 31.3658 9.112 31.2578 9.1C30.5858 9.724 29.8298 10.036 28.9898 10.036C28.4978 10.036 28.2518 9.826 28.2518 9.406C28.2518 8.722 28.5818 7.924 29.2418 7.012C29.6618 6.412 30.1718 5.938 30.7718 5.59C31.4078 5.194 31.9478 4.996 32.3918 4.996C32.8718 4.996 33.1118 5.23 33.1118 5.698ZM32.2478 5.716C32.2478 5.428 32.1398 5.284 31.9238 5.284C31.8518 5.284 31.7138 5.326 31.5098 5.41C31.3058 5.482 31.0478 5.68 30.7358 6.004C30.4358 6.316 30.1478 6.718 29.8718 7.21C29.3558 8.062 29.0978 8.698 29.0978 9.118C29.0978 9.526 29.2058 9.73 29.4218 9.73C29.5898 9.73 29.7758 9.676 29.9798 9.568C30.1838 9.448 30.3458 9.328 30.4658 9.208C30.8378 8.812 31.2278 8.278 31.6358 7.606C32.0438 6.922 32.2478 6.292 32.2478 5.716Z" fill="#DA9D54"/>
</svg>
